Coordinates
version=1
nRows=8
nColumns=33
inDegrees=yes

Units are S.I. units (second, meters, Newtons, ...)
Angles are in degrees.

endheader
time	ground_thorax_rot_x	ground_thorax_rot_y	ground_thorax_rot_z	ground_thorax_tx	ground_thorax_ty	ground_thorax_tz	clav_prot_r	clav_elev_r	scapula_abduction_r	scapula_elevation_r	scapula_upward_rot_r	scapula_winging_r	shoulder_elv_r	plane_of_elev_r	axial_rot_r	elbow_flexion_r	pro_sup_r	wrist_flex_r	wrist_dev_r	clav_prot_l	clav_elev_l	scapula_abduction_l	scapula_elevation_l	scapula_upward_rot_l	scapula_winging_l	shoulder_elv_l	plane_of_elev_l	axial_rot_l	elbow_flexion_l	pro_sup_l	wrist_flex_l	wrist_dev_l
      4.02000000	      0.39898399	     -0.39427547	     13.31505220	     -0.11813325	      1.02985135	      0.01380001	      9.34529174	     -7.47819819	     16.91592166	     -1.20151446	      1.42252961	     -4.51667462	    -53.81384734	    -71.17781992	     87.79430542	    -58.53472074	   -134.34603698	     51.19219711	    -24.99999983	      6.86682624	      0.52100536	     -6.23357006	    -22.00215166	    -34.04668515	     -3.83087087	     52.56701324	    -38.06332349	      1.27667295	     58.96875762	     30.70637912	     -5.78894648	    -24.99999983
      4.03000000	      0.39502184	     -0.42382302	     13.30327576	     -0.11819169	      1.02950203	      0.01364628	      9.33414343	     -7.49390432	     16.89326156	     -1.21270510	      1.41431008	     -4.50229515	    -53.83203047	    -71.12835485	     87.80940766	    -58.52832297	   -134.34223835	     51.20522684	    -24.99999983	      6.85474274	      0.49969819	     -6.22183256	    -22.00009974	    -34.08605095	     -3.83930484	     52.52246978	    -38.06948489	      1.25009213	     58.94540257	     30.70239038	     -5.78306294	    -24.99999983
      4.04000000	      0.04932348	     -0.08623656	     13.12015133	     -0.11777184	      1.03036637	      0.01382472	      8.58839135	     -8.29201959	     15.63207185	     -1.91149553	      1.35935696	     -3.72206864	    -53.63490969	    -71.05282397	     87.18135645	    -57.81847275	   -134.19685584	     54.20054434	    -24.99999983	      6.88008074	      0.41981749	     -6.25064583	    -21.82635956	    -33.89770190	     -3.78109033	     53.07943419	    -38.10270804	      0.62508490	     58.52438521	     29.12255410	     -5.84113762	    -24.99999983
      4.05000000	      0.04865213	     -0.12256016	     13.17225285	     -0.11787800	      1.03015221	      0.01371623	      8.57995237	     -8.30594424	     15.62561505	     -1.92948937	      1.37197660	     -3.71396075	    -53.64090665	    -71.02385747	     87.19495042	    -57.82899554	   -134.19866531	     54.20421856	    -24.99999983	      6.87519563	      0.40070967	     -6.25067533	    -21.80902531	    -33.90223697	     -3.77565713	     53.06341936	    -38.07545778	      0.60655816	     58.52452363	     29.12427151	     -5.83979382	    -24.99999983
      4.06000000	      0.04922950	     -0.15892143	     13.23396388	     -0.11796022	      1.02998421	      0.01362767	      8.57122745	     -8.32004974	     15.61999665	     -1.95011198	      1.39230535	     -3.70832550	    -53.63706836	    -70.99309073	     87.20166218	    -57.84616912	   -134.20152032	     54.20883752	    -24.99999983	      6.87739400	      0.38271484	     -6.25210995	    -21.78973035	    -33.89874724	     -3.77332438	     53.05680719	    -38.04607421	      0.59139050	     58.52438492	     29.12658247	     -5.83970164	    -24.99999983
      4.07000000	      0.04906144	     -0.19474592	     13.30001791	     -0.11800525	      1.02984273	      0.01354576	      8.56172108	     -8.33299482	     15.61695890	     -1.97236195	      1.41701273	     -3.70383678	    -53.62632356	    -70.96275251	     87.20366952	    -57.86934533	   -134.20522530	     54.21479755	    -24.99999983	      6.87916393	      0.36706913	     -6.25719053	    -21.76903977	    -33.88953805	     -3.76722084	     53.05823913	    -38.01528714	      0.57755560	     58.52334910	     29.12978714	     -5.84062689	    -24.99999983
      4.08000000	      0.04541804	     -0.16441331	     13.30576054	     -0.11812942	      1.02989612	      0.01375498	      8.56235033	     -8.37756193	     15.60229705	     -1.99702869	      1.37885964	     -3.67998604	    -53.48888804	    -70.74830638	     87.15748312	    -58.00894115	   -134.27644532	     54.35080765	    -24.99999983	      6.93816552	      0.28250338	     -6.37466602	    -21.66878084	    -33.86442875	     -3.70783483	     53.17789779	    -37.90953259	      0.36482023	     58.25876823	     29.26069217	     -5.89292058	    -24.99999983
      4.09000000	      0.04928331	     -0.19728982	     13.36046450	     -0.11813935	      1.02973640	      0.01363844	      8.55740220	     -8.38090835	     15.60230952	     -2.00740923	      1.39586503	     -3.67927244	    -53.47363973	    -70.74585495	     87.14984397	    -58.01862908	   -134.27921567	     54.35429328	    -24.99999983	      6.94633934	      0.27809500	     -6.38501562	    -21.64987991	    -33.83605875	     -3.70095221	     53.20103036	    -37.87604096	      0.36467576	     58.27524125	     29.26142466	     -5.89722631	    -24.99999983
